<?xml version="1.0" encoding="utf-8"?>
<!-- Generator: Adobe Illustrator 18.0.0, SVG Export Plug-In . SVG Version: 6.00 Build 0)  -->
<!DOCTYPE svg PUBLIC "-//W3C//DTD SVG 1.1//EN" "http://www.w3.org/Graphics/SVG/1.1/DTD/svg11.dtd">
<svg version="1.1" id="Layer_1" xmlns="http://www.w3.org/2000/svg" xmlns:xlink="http://www.w3.org/1999/xlink" x="0px" y="0px"
	 viewBox="0 378.6 1590 378.1" enable-background="new 0 378.6 1590 378.1" xml:space="preserve">
<g id="Слой_2">
</g>
<g id="Слой_1">
	<g>
		<path fill="#000000"    d="M1584.3,648.9l-1.7,6.1l-20.8,1.1l-3.4-3.8v-70.5
			l-57.7-0.2c0.6,0,1.3-0.6,1.3-1.3c0-0.8-0.6-1.5-1.5-1.5s-1.5,0.6-1.5,1.5c0,0.6,0.6,1.3,1.3,1.3h-7.8c0.6-0.2,1.1-0.6,1.1-1.3
			c0-0.8-0.6-1.5-1.5-1.5c-0.8,0-1.5,0.6-1.5,1.5c0,0.6,0.4,1.3,1.1,1.3h-2.1v15l-21.1,2.1v58.1l-3.4,2.7v-20l-4.8,0.2v-11.2h-19
			V515.1l-1.1-0.2c0.4-0.4,0.6-0.8,0.6-1.5c0-1.3-1.1-2.1-2.1-2.1s-2.1,1.1-2.1,2.1c0,0.2,0,0.4,0.2,0.6l-66.5-13.5l-15-1.3
			c0.2-0.4,0.4-0.6,0.4-1.3c0-1.3-1.1-2.1-2.1-2.1s-2.1,1.1-2.1,2.1c0,0.2,0,0.6,0.2,0.8l-1.7-0.2v16.8l-6.5,6.9v8.2l-9.3,2.9V651
			l-15-1.9v-4.6h-11v4.6h-25.9v-155l-5.9-5.3h-0.2c0.2-0.2,0.4-0.6,0.4-1.1c0-0.8-0.6-1.5-1.5-1.5s-1.5,0.6-1.5,1.5
			c0,0.4,0.2,0.6,0.2,0.8l-18.7-1.3v-25.5c0.8-0.2,1.3-1.1,1.3-1.9c0-1.1-0.8-1.9-1.9-1.9s-1.9,0.8-1.9,1.9c0,0.8,0.6,1.5,1.3,1.9
			v25.5l-7.4,0.4l-15.2,0.4c0.2-0.2,0.4-0.6,0.4-1.1c0-0.8-0.6-1.5-1.5-1.5s-1.5,0.6-1.5,1.5c0,0.6,0.2,1.1,0.6,1.3h-0.4l-6.9,12.2
			v17.9l-8.8-0.2v19.8l-6.5,1.3v65.3l-4.4-0.2l-5.3,2.9v7.4l-6.3,0.2v-9.5h-5.5v-97.1l-9.3-3.4l-11.8,0.2v14.3h-42.5v-13.1
			l-21.7-0.4v73.1h-24.4V549l-13.1-3.8l-57.1,1.5v15.6H981v7.4h-12.2v-6.5l-59-1.3v9.1h-18.1v-3.2l-12.4-0.4v-83.8l-72.4-2.9
			l-13.9-0.2l-13.9,4V553l-12.2-0.2h-8.8l-3.8,19.6l-3.4,0.6v17.9l-12.8-0.2V603h-9.7v8.8l-4.8-0.4V503.8l-17.5-0.6l-18.3-0.4V500
			l-15.6,0.4l-6.3,4h-41.3l-9.9,3.2V533h-2.7l-3.8-4.4l-6.3,5.7l-2.5-0.4l-8,5.5h-15v-12.4h-7.6l-4.4-7.8h-38.1l-4.2,7.6h-8v54.8
			h-18.1v5.7h-3.2v14.1h-5.3v7.6H481v7.6h-18.5v6.1h-17.3v-28l-8-0.2v-8.8h-23.6v-50.5h-9.3v3.2l-13.3-0.2v-6.5l-27.2-0.2v-31h-8
			v-37.5l-24.6-8.8h-16v-9.3l0,0v-6.1l1.5-0.2v-2.9l-1.5-0.2v-5.9h1.1v-1.7h-1.1v-2.3c1.1-0.2,1.7-1.1,1.7-2.1
			c0-1.1-0.8-1.9-1.7-2.1l-0.2-23.4h0.2c1.1,0,1.9-0.8,1.9-1.9s-0.8-1.9-1.9-1.9s-1.9,0.8-1.9,1.9c0,0.8,0.6,1.7,1.5,1.7l-1.1,23.4
			c-0.8,0.4-1.5,1.1-1.5,2.1c0,0.8,0.4,1.7,1.3,1.9l-0.2,2.3h-0.8v1.7h0.8l-0.2,5.9h-1.5v3.4h1.5l-0.2,6.1h-24.6
			c0.4-0.2,0.6-0.8,0.6-1.3c0-0.8-0.6-1.7-1.7-1.7s-1.7,0.6-1.7,1.7c0,0.4,0.2,0.8,0.6,1.3h-0.6v8.4h-25.3V584l-21.7-0.4v-10.7
			l1.1-1.9v-8v-3.8h-2.9l-5.3-21.3l-3.2-0.2l-4.2,11.6l-5.9,0.4l0.2-45.1h-9.9v-10.5h-80.2v27.8H75.4v-3.2H57.7l-0.6,23.8L27,541.9
			l0.2,27.6L13.9,569v77.3L0,641.3v115.2l1590,0.4V648.4L1584.3,648.9z"/>
		<circle fill="#000000"    cx="1528.7" cy="580.2" r="1.5"/>
		<circle fill="#000000"    cx="1554.4" cy="580.2" r="1.5"/>
	</g>
</g>
</svg>
